<svg width="20" height="16" viewBox="0 0 20 16" fill="none" xmlns="http://www.w3.org/2000/svg">
<path d="M9.87583 7.30096L16.5165 0.660339C16.9754 0.201355 17.7176 0.201355 18.1717 0.660339L19.2752 1.76385C19.7342 2.22284 19.7342 2.96503 19.2752 3.41913L14.5731 8.13104L19.2801 12.8381C19.7391 13.2971 19.7391 14.0392 19.2801 14.4933L18.1766 15.6017C17.7176 16.0607 16.9754 16.0607 16.5213 15.6017L9.88071 8.96112C9.41684 8.50214 9.41684 7.75995 9.87583 7.30096V7.30096ZM0.500826 8.96112L7.14145 15.6017C7.60044 16.0607 8.34262 16.0607 8.79673 15.6017L9.90024 14.4982C10.3592 14.0392 10.3592 13.2971 9.90024 12.843L5.19809 8.13104L9.90512 3.42401C10.3641 2.96503 10.3641 2.22284 9.90512 1.76874L8.80161 0.660339C8.34262 0.201355 7.60044 0.201355 7.14633 0.660339L0.505709 7.30096C0.041842 7.75995 0.0418421 8.50214 0.500826 8.96112V8.96112Z" fill="#505050"/>
</svg>
