<svg width="20" height="17" viewBox="0 0 20 17" fill="none" xmlns="http://www.w3.org/2000/svg">
<path d="M9.81525 9.06802L3.17462 15.7086C2.71564 16.1676 1.97345 16.1676 1.51935 15.7086L0.415833 14.6051C-0.0431519 14.1461 -0.0431519 13.404 0.415833 12.9499L5.12286 8.24282L0.415833 3.53579C-0.0431519 3.0768 -0.0431519 2.33462 0.415833 1.88052L1.51447 0.767234C1.97345 0.308249 2.71564 0.308249 3.16974 0.767234L9.81036 7.40786C10.2742 7.86684 10.2742 8.60903 9.81525 9.06802V9.06802ZM19.1902 7.40786L12.5496 0.767234C12.0906 0.308249 11.3484 0.308249 10.8943 0.767234L9.79083 1.87075C9.33185 2.32973 9.33185 3.07192 9.79083 3.52602L14.4979 8.23305L9.79083 12.9401C9.33185 13.3991 9.33185 14.1413 9.79083 14.5954L10.8943 15.6989C11.3533 16.1579 12.0955 16.1579 12.5496 15.6989L19.1902 9.05825C19.6492 8.60903 19.6492 7.86684 19.1902 7.40786Z" fill="#505050"/>
</svg>
